<?xml version="1.0" encoding="UTF-8" standalone="no"?><svg xmlns="http://www.w3.org/2000/svg" xmlns:xlink="http://www.w3.org/1999/xlink" contentScriptType="application/ecmascript" contentStyleType="text/css" height="645px" preserveAspectRatio="none" style="width:483px;height:645px;" version="1.1" viewBox="0 0 483 645" width="483px" zoomAndPan="magnify"><defs><filter height="300%" id="fxx503z3xnkdo" width="300%" x="-1" y="-1"><feGaussianBlur result="blurOut" stdDeviation="2.0"/><feColorMatrix in="blurOut" result="blurOut2" type="matrix" values="0 0 0 0 0 0 0 0 0 0 0 0 0 0 0 0 0 0 .4 0"/><feOffset dx="4.0" dy="4.0" in="blurOut2" result="blurOut3"/><feBlend in="SourceGraphic" in2="blurOut3" mode="normal"/></filter></defs><g><rect fill="#FFFFFF" filter="url(#fxx503z3xnkdo)" height="261.4609" style="stroke: #A80036; stroke-width: 1.0;" width="10" x="191" y="51.6094"/><rect fill="#FFFFFF" filter="url(#fxx503z3xnkdo)" height="345.1641" rx="7.5" ry="7.5" style="stroke: #000000; stroke-width: 2.0;" width="395.5" x="10" y="58.6094"/><rect fill="#FFFFFF" filter="url(#fxx503z3xnkdo)" height="61.7031" rx="7.5" ry="7.5" style="stroke: #000000; stroke-width: 2.0;" width="175" x="161" y="335.0703"/><rect fill="#FFFFFF" filter="url(#fxx503z3xnkdo)" height="165.7578" rx="7.5" ry="7.5" style="stroke: #000000; stroke-width: 2.0;" width="459" x="10" y="417.7734"/><line style="stroke: #A80036; stroke-width: 1.0; stroke-dasharray: 5.0,5.0;" x1="44" x2="44" y1="41.6094" y2="600.5313"/><line style="stroke: #A80036; stroke-width: 1.0; stroke-dasharray: 5.0,5.0;" x1="196" x2="196" y1="41.6094" y2="600.5313"/><line style="stroke: #A80036; stroke-width: 1.0; stroke-dasharray: 5.0,5.0;" x1="361.5" x2="361.5" y1="41.6094" y2="600.5313"/><rect fill="#FEFECE" filter="url(#fxx503z3xnkdo)" height="31.6094" rx="7.5" ry="7.5" style="stroke: #A80036; stroke-width: 1.5;" width="44" x="20" y="5"/><text fill="#000000" font-family="sans-serif" font-size="14" lengthAdjust="spacingAndGlyphs" textLength="30" x="27" y="26.5332">main</text><rect fill="#FEFECE" filter="url(#fxx503z3xnkdo)" height="31.6094" rx="7.5" ry="7.5" style="stroke: #A80036; stroke-width: 1.5;" width="44" x="20" y="599.5313"/><text fill="#000000" font-family="sans-serif" font-size="14" lengthAdjust="spacingAndGlyphs" textLength="30" x="27" y="621.0645">main</text><rect fill="#FEFECE" filter="url(#fxx503z3xnkdo)" height="31.6094" rx="7.5" ry="7.5" style="stroke: #A80036; stroke-width: 1.5;" width="46" x="171" y="5"/><text fill="#000000" font-family="sans-serif" font-size="14" lengthAdjust="spacingAndGlyphs" textLength="32" x="178" y="26.5332">appa</text><rect fill="#FEFECE" filter="url(#fxx503z3xnkdo)" height="31.6094" rx="7.5" ry="7.5" style="stroke: #A80036; stroke-width: 1.5;" width="46" x="171" y="599.5313"/><text fill="#000000" font-family="sans-serif" font-size="14" lengthAdjust="spacingAndGlyphs" textLength="32" x="178" y="621.0645">appa</text><rect fill="#FEFECE" filter="url(#fxx503z3xnkdo)" height="31.6094" rx="7.5" ry="7.5" style="stroke: #A80036; stroke-width: 1.5;" width="63" x="328.5" y="5"/><text fill="#000000" font-family="sans-serif" font-size="14" lengthAdjust="spacingAndGlyphs" textLength="49" x="335.5" y="26.5332">replicas</text><rect fill="#FEFECE" filter="url(#fxx503z3xnkdo)" height="31.6094" rx="7.5" ry="7.5" style="stroke: #A80036; stroke-width: 1.5;" width="63" x="328.5" y="599.5313"/><text fill="#000000" font-family="sans-serif" font-size="14" lengthAdjust="spacingAndGlyphs" textLength="49" x="335.5" y="621.0645">replicas</text><rect fill="#FFFFFF" filter="url(#fxx503z3xnkdo)" height="261.4609" style="stroke: #A80036; stroke-width: 1.0;" width="10" x="191" y="51.6094"/><path d="M17.5,58.6094 L101,58.6094 L101,66.6094 L91,76.6094 L10,76.6094 L10,66.1094 " fill="#EEEEEE" style="stroke: #000000; stroke-width: 1.0;"/><rect fill="none" height="345.1641" rx="7.5" ry="7.5" style="stroke: #000000; stroke-width: 2.0;" width="395.5" x="10" y="58.6094"/><text fill="#000000" font-family="sans-serif" font-size="13" font-weight="bold" lengthAdjust="spacingAndGlyphs" textLength="46" x="25" y="73.1045">Startup</text><polygon fill="#A80036" points="350,95.3125,360,99.3125,350,103.3125,354,99.3125" style="stroke: #A80036; stroke-width: 1.0;"/><line style="stroke: #A80036; stroke-width: 1.5;" x1="201" x2="356" y1="99.3125" y2="99.3125"/><text fill="#000000" font-family="sans-serif" font-size="13" lengthAdjust="spacingAndGlyphs" textLength="137" x="208" y="94.4561">Spawn replica browsers</text><polygon fill="#A80036" points="212,109.3125,202,113.3125,212,117.3125,208,113.3125" style="stroke: #A80036; stroke-width: 1.0;"/><line style="stroke: #A80036; stroke-width: 1.5; stroke-dasharray: 2.0,2.0;" x1="206" x2="361" y1="113.3125" y2="113.3125"/><polygon fill="#A80036" points="350,139.6641,360,143.6641,350,147.6641,354,143.6641" style="stroke: #A80036; stroke-width: 1.0;"/><line style="stroke: #A80036; stroke-width: 1.5;" x1="201" x2="356" y1="143.6641" y2="143.6641"/><text fill="#000000" font-family="sans-serif" font-size="13" lengthAdjust="spacingAndGlyphs" textLength="123" x="208" y="138.8076">Navigate to start URL</text><polygon fill="#A80036" points="212,153.6641,202,157.6641,212,161.6641,208,157.6641" style="stroke: #A80036; stroke-width: 1.0;"/><line style="stroke: #A80036; stroke-width: 1.5; stroke-dasharray: 2.0,2.0;" x1="206" x2="361" y1="157.6641" y2="157.6641"/><polygon fill="#A80036" points="55,184.0156,45,188.0156,55,192.0156,51,188.0156" style="stroke: #A80036; stroke-width: 1.0;"/><line style="stroke: #A80036; stroke-width: 1.5;" x1="49" x2="190" y1="188.0156" y2="188.0156"/><text fill="#000000" font-family="sans-serif" font-size="13" lengthAdjust="spacingAndGlyphs" textLength="120" x="61" y="183.1592">Spawn main browser</text><polygon fill="#A80036" points="179,198.0156,189,202.0156,179,206.0156,183,202.0156" style="stroke: #A80036; stroke-width: 1.0;"/><line style="stroke: #A80036; stroke-width: 1.5; stroke-dasharray: 2.0,2.0;" x1="44" x2="185" y1="202.0156" y2="202.0156"/><polygon fill="#A80036" points="55,228.3672,45,232.3672,55,236.3672,51,232.3672" style="stroke: #A80036; stroke-width: 1.0;"/><line style="stroke: #A80036; stroke-width: 1.5;" x1="49" x2="190" y1="232.3672" y2="232.3672"/><text fill="#000000" font-family="sans-serif" font-size="13" lengthAdjust="spacingAndGlyphs" textLength="123" x="61" y="227.5107">Navigate to start URL</text><polygon fill="#A80036" points="179,242.3672,189,246.3672,179,250.3672,183,246.3672" style="stroke: #A80036; stroke-width: 1.0;"/><line style="stroke: #A80036; stroke-width: 1.5; stroke-dasharray: 2.0,2.0;" x1="44" x2="185" y1="246.3672" y2="246.3672"/><polygon fill="#A80036" points="55,272.7188,45,276.7188,55,280.7188,51,276.7188" style="stroke: #A80036; stroke-width: 1.0;"/><line style="stroke: #A80036; stroke-width: 1.5;" x1="49" x2="190" y1="276.7188" y2="276.7188"/><text fill="#000000" font-family="sans-serif" font-size="13" lengthAdjust="spacingAndGlyphs" textLength="109" x="61" y="271.8623">Inject client scripts</text><line style="stroke: #A80036; stroke-width: 1.5;" x1="201" x2="243" y1="312.0703" y2="312.0703"/><line style="stroke: #A80036; stroke-width: 1.5;" x1="243" x2="243" y1="312.0703" y2="325.0703"/><line style="stroke: #A80036; stroke-width: 1.5;" x1="196" x2="243" y1="325.0703" y2="325.0703"/><polygon fill="#A80036" points="206,321.0703,196,325.0703,206,329.0703,202,325.0703" style="stroke: #A80036; stroke-width: 1.0;"/><text fill="#000000" font-family="sans-serif" font-size="13" lengthAdjust="spacingAndGlyphs" textLength="136" x="208" y="307.2139">Create event dispatcher</text><path d="M168.5,335.0703 L234,335.0703 L234,343.0703 L224,353.0703 L161,353.0703 L161,342.5703 " fill="#EEEEEE" style="stroke: #000000; stroke-width: 1.0;"/><rect fill="none" height="61.7031" rx="7.5" ry="7.5" style="stroke: #000000; stroke-width: 2.0;" width="175" x="161" y="335.0703"/><text fill="#000000" font-family="sans-serif" font-size="13" font-weight="bold" lengthAdjust="spacingAndGlyphs" textLength="28" x="176" y="349.5654">loop</text><line style="stroke: #A80036; stroke-width: 1.5;" x1="196" x2="238" y1="375.7734" y2="375.7734"/><line style="stroke: #A80036; stroke-width: 1.5;" x1="238" x2="238" y1="375.7734" y2="388.7734"/><line style="stroke: #A80036; stroke-width: 1.5;" x1="197" x2="238" y1="388.7734" y2="388.7734"/><polygon fill="#A80036" points="207,384.7734,197,388.7734,207,392.7734,203,388.7734" style="stroke: #A80036; stroke-width: 1.0;"/><text fill="#000000" font-family="sans-serif" font-size="13" lengthAdjust="spacingAndGlyphs" textLength="121" x="203" y="370.917">Process event queue</text><path d="M17.5,417.7734 L196,417.7734 L196,425.7734 L186,435.7734 L10,435.7734 L10,425.2734 " fill="#EEEEEE" style="stroke: #000000; stroke-width: 1.0;"/><rect fill="none" height="165.7578" rx="7.5" ry="7.5" style="stroke: #000000; stroke-width: 2.0;" width="459" x="10" y="417.7734"/><text fill="#000000" font-family="sans-serif" font-size="13" font-weight="bold" lengthAdjust="spacingAndGlyphs" textLength="141" x="25" y="432.2686">DOM event replication</text><line style="stroke: #A80036; stroke-width: 1.5;" x1="44" x2="86" y1="458.4766" y2="458.4766"/><line style="stroke: #A80036; stroke-width: 1.5;" x1="86" x2="86" y1="458.4766" y2="471.4766"/><line style="stroke: #A80036; stroke-width: 1.5;" x1="45" x2="86" y1="471.4766" y2="471.4766"/><polygon fill="#A80036" points="55,467.4766,45,471.4766,55,475.4766,51,471.4766" style="stroke: #A80036; stroke-width: 1.0;"/><text fill="#000000" font-family="sans-serif" font-size="13" lengthAdjust="spacingAndGlyphs" textLength="113" x="51" y="453.6201">Capture DOM event</text><polygon fill="#A80036" points="184,497.8281,194,501.8281,184,505.8281,188,501.8281" style="stroke: #A80036; stroke-width: 1.0;"/><line style="stroke: #A80036; stroke-width: 1.5;" x1="44" x2="190" y1="501.8281" y2="501.8281"/><text fill="#000000" font-family="sans-serif" font-size="13" lengthAdjust="spacingAndGlyphs" textLength="122" x="51" y="496.9717">Send event metadata</text><polygon fill="#A80036" points="350,528.1797,360,532.1797,350,536.1797,354,532.1797" style="stroke: #A80036; stroke-width: 1.0;"/><line style="stroke: #A80036; stroke-width: 1.5;" x1="196" x2="356" y1="532.1797" y2="532.1797"/><text fill="#000000" font-family="sans-serif" font-size="13" lengthAdjust="spacingAndGlyphs" textLength="85" x="203" y="527.3232">Dispatch event</text><line style="stroke: #A80036; stroke-width: 1.5;" x1="362" x2="404" y1="562.5313" y2="562.5313"/><line style="stroke: #A80036; stroke-width: 1.5;" x1="404" x2="404" y1="562.5313" y2="575.5313"/><line style="stroke: #A80036; stroke-width: 1.5;" x1="363" x2="404" y1="575.5313" y2="575.5313"/><polygon fill="#A80036" points="373,571.5313,363,575.5313,373,579.5313,369,575.5313" style="stroke: #A80036; stroke-width: 1.0;"/><text fill="#000000" font-family="sans-serif" font-size="13" lengthAdjust="spacingAndGlyphs" textLength="88" x="369" y="557.6748">Replicate event</text><!--MD5=[fbff767417b46414695fc3f07faf8c0a]
@startuml startup
skinparam roundcorner 15
skinparam sequenceArrowThickness 1.5

participant main
participant appa
participant replicas

group Startup
    activate appa
    appa -> replicas: Spawn replica browsers
    return
    appa -> replicas: Navigate to start URL
    return

    appa -> main: Spawn main browser
    return
    appa -> main: Navigate to start URL
    return
    appa -> main: Inject client scripts

    appa -> appa: Create event dispatcher
    deactivate appa

    loop
        appa -> appa: Process event queue
    end
end

group DOM event replication
    main -> main: Capture DOM event

    main -> appa: Send event metadata

    appa -> replicas: Dispatch event

    replicas -> replicas: Replicate event

end

@enduml

PlantUML version 1.2020.19(Mon Oct 12 18:10:01 EEST 2020)
(GPL source distribution)
Java Runtime: Java(TM) SE Runtime Environment
JVM: Java HotSpot(TM) 64-Bit Server VM
Default Encoding: Cp1252
Language: en
Country: US
--></g></svg>